<?xml version="1.0" encoding="iso-8859-1"?>
<!-- Uploaded to: SVG Repo, www.svgrepo.com, Generator: SVG Repo Mixer Tools -->
<svg height="800px" width="800px" version="1.1" id="Layer_1" xmlns="http://www.w3.org/2000/svg" xmlns:xlink="http://www.w3.org/1999/xlink" 
	 viewBox="0 0 512 512" xml:space="preserve">
<path style="fill:#FF9900;" d="M509.702,48.479c-3.075-5.471-8.925-9.174-15.648-9.174H121.029c-3.059,0-6.068,0.781-8.74,2.272
	L9.206,99.056c-5.145,2.869-8.509,8.057-9.102,13.843C0.042,113.504,0,114.114,0,114.73v340.019c0,9.911,8.035,17.946,17.946,17.946
	h376.848c3.497,0,6.76-1,9.52-2.73l98.515-55.231c5.663-3.174,9.171-9.161,9.171-15.654V57.251
	C512,54.063,511.16,51.074,509.702,48.479z"/>
<path d="M394.795,112.898L394.795,112.898L394.795,112.898z"/>
<path style="fill:#FAD52A;" d="M0.104,112.898C0.042,113.504,0,114.114,0,114.73v340.019c0,9.911,8.035,17.946,17.946,17.946
	h376.848V112.898H0.104z"/>
<g>
	<path style="fill:#FFEA5E;" d="M0.104,112.898C0.042,113.504,0,114.114,0,114.73v340.019c0,9.911,8.035,17.946,17.946,17.946
		h179.761V112.898H0.104z"/>
	<path style="fill:#FFEA5E;" d="M151.983,112.898v80.603c0,16.267,13.186,29.452,29.452,29.452h30.581
		c16.267,0,29.452-13.186,29.452-29.452v-80.603H151.983z"/>
</g>
<path style="fill:#FF9900;" d="M494.054,39.305H121.029c-3.059,0-6.068,0.781-8.74,2.272L9.206,99.056
	c-5.145,2.869-8.509,8.057-9.102,13.843h394.692l0,0l114.907-64.42C506.627,43.008,500.776,39.305,494.054,39.305z"/>
<g>
	<path style="fill:#FAD52A;" d="M327.631,39.305H121.029c-3.059,0-6.068,0.781-8.74,2.272L9.206,99.056
		c-5.145,2.869-8.509,8.057-9.102,13.843h394.692H197.697L327.631,39.305z"/>
	<path style="fill:#FAD52A;" d="M151.983,112.898v80.599c0,16.268,13.188,29.456,29.456,29.456h16.269V112.898H151.983z"/>
</g>
</svg>